<svg width="653" height="653" viewBox="0 0 653 653" fill="none" xmlns="http://www.w3.org/2000/svg">
<g clip-path="url(#clip0)">
<path opacity="0.35" d="M501.613 653.01C481.723 653.017 462.028 649.103 443.652 641.492C425.276 633.881 408.581 622.723 394.521 608.654L44.3498 258.465C23.1775 237.289 8.75978 210.31 2.91964 180.94C-2.92051 151.57 0.0792155 121.128 11.5395 93.4628C22.9998 65.7977 42.406 42.1521 67.3042 25.5159C92.2024 8.87979 121.474 0.000210066 151.419 0L501.577 0C585.207 0 653.001 67.7759 653.001 151.41V501.59C653.009 521.474 649.098 541.165 641.493 559.538C633.888 577.91 622.737 594.604 608.679 608.666C594.62 622.728 577.928 633.881 559.558 641.49C541.187 649.099 521.497 653.013 501.613 653.01V653.01Z" fill="#16CAD5" fill-opacity="0.74"/>
<path d="M151.418 653.011C131.532 653.035 111.837 649.132 93.4635 641.526C75.0898 633.92 58.3989 622.76 44.3485 608.688C-14.7741 549.548 -14.7904 453.65 44.3485 394.546L394.507 44.3565C453.646 -14.7833 549.506 -14.7408 608.645 44.3206C667.768 103.464 667.784 199.358 608.645 258.465L258.487 608.645C244.444 622.73 227.755 633.901 209.38 641.514C191.006 649.128 171.307 653.035 151.418 653.011V653.011Z" fill="#16A7D5" fill-opacity="0.77"/>
</g>
<defs>
<clipPath id="clip0">
<rect width="653" height="653" fill="white"/>
</clipPath>
</defs>
</svg>
